<?xml version="1.0" encoding="UTF-8" standalone="no"?>
<!-- Created with Inkscape (http://www.inkscape.org/) -->

<svg
   width="211.91968mm"
   height="212.9299mm"
   viewBox="0 0 211.91967 212.9299"
   version="1.1"
   id="svg8760"
   xml:space="preserve"
   inkscape:version="1.2 (dc2aedaf03, 2022-05-15)"
   sodipodi:docname="X.COM.svg"
   xmlns:inkscape="http://www.inkscape.org/namespaces/inkscape"
   xmlns:sodipodi="http://sodipodi.sourceforge.net/DTD/sodipodi-0.dtd"
   xmlns="http://www.w3.org/2000/svg"
   xmlns:svg="http://www.w3.org/2000/svg"><sodipodi:namedview
     id="namedview8762"
     pagecolor="#505050"
     bordercolor="#eeeeee"
     borderopacity="1"
     inkscape:showpageshadow="0"
     inkscape:pageopacity="0"
     inkscape:pagecheckerboard="0"
     inkscape:deskcolor="#505050"
     inkscape:document-units="mm"
     showgrid="false"
     inkscape:zoom="1.1883979"
     inkscape:cx="616.7968"
     inkscape:cy="502.35701"
     inkscape:window-width="1600"
     inkscape:window-height="847"
     inkscape:window-x="-8"
     inkscape:window-y="-8"
     inkscape:window-maximized="1"
     inkscape:current-layer="layer1" /><defs
     id="defs8757"><filter
       inkscape:collect="always"
       style="color-interpolation-filters:sRGB"
       id="filter11421"
       x="-0.043088795"
       y="-0.054174766"
       width="1.0861776"
       height="1.1083495"><feGaussianBlur
         inkscape:collect="always"
         stdDeviation="3.5028663"
         id="feGaussianBlur11423" /></filter></defs><g
     inkscape:label="Layer 1"
     inkscape:groupmode="layer"
     id="layer1"
     transform="translate(0.14761062,-39.247015)"><g
       id="g11558"
       style="stroke:none;stroke-width:0.26458333;stroke-dasharray:none"><path
         id="path10893"
         style="opacity:0.75;fill:#000000;fill-rule:evenodd;stroke:none;stroke-width:0.26458333;stroke-linecap:round;stroke-linejoin:round;stroke-dasharray:none;filter:url(#filter11421);stop-color:#000000;stop-opacity:1"
         d="M 87.102001,47.653894 A 77.081429,77.081429 0 0 0 45.238406,60.06864 L 32.337902,48.440926 8.2592682,73.321578 20.900357,85.314644 a 77.081429,77.081429 0 0 0 -10.879439,39.420336 77.081429,77.081429 0 0 0 77.081083,77.0816 77.081429,77.081429 0 0 0 41.723039,-12.27367 l 4.46226,4.35994 43.32707,8.93176 26.75082,-19.71301 -42.01242,-37.71295 A 77.081429,77.081429 0 0 0 164.1836,124.73498 77.081429,77.081429 0 0 0 87.102001,47.653894 Z" /><path
         id="path8834"
         style="opacity:1;fill:#006db0;fill-rule:evenodd;stroke:none;stroke-width:0.26458333;stroke-linecap:round;stroke-linejoin:round;stop-color:#000000;stop-opacity:1;stroke-dasharray:none"
         d="M 165.18367,123.73463 A 77.081429,77.081429 0 0 1 88.102242,200.81606 77.081429,77.081429 0 0 1 11.020813,123.73463 77.081429,77.081429 0 0 1 88.102242,46.653198 77.081429,77.081429 0 0 1 165.18367,123.73463 Z" /><path
         d="m 162.54881,251.23382 h 8.73143 v -14.99057 c 0,-2.82935 -0.10153,-5.21195 -1.67522,-7.29674 -1.52293,-1.98551 -3.8073,-2.97825 -6.80239,-2.97825 -3.75654,0 -6.49778,1.48912 -8.52835,4.6163 -1.11682,-3.07754 -3.70577,-4.6163 -7.7669,-4.6163 -3.70578,0 -6.29474,1.5884 -8.42684,5.06304 v -4.26884 h -8.68064 v 24.47136 h 8.57912 v -10.37427 c 0,-5.31123 0.30458,-8.58732 4.46724,-8.58732 2.94431,0 3.55349,1.8366 3.55349,5.60906 v 13.35253 h 8.52835 v -10.37427 c 0,-5.36087 0.30458,-8.58732 4.41647,-8.58732 2.89356,0 3.60424,1.73732 3.60424,5.60906 z"
         style="font-weight:bold;font-size:39.9999px;line-height:1.25;font-family:Futura;-inkscape-font-specification:'Futura Bold';letter-spacing:-1.46804px;baseline-shift:baseline;fill:#0a427d;fill-opacity:1;stroke:none;stroke-width:0.26458333;stroke-dasharray:none"
         id="path9397" /><path
         d="m 95.268696,234.80376 v -7.29674 c -2.000839,-1.14166 -4.001692,-1.53876 -6.412962,-1.53876 -7.695573,0 -13.185078,5.36087 -13.185078,13.05469 0,8.14057 5.592113,13.15397 13.08247,13.15397 2.359967,0 4.463427,-0.59564 6.51557,-1.68767 v -7.49529 c -1.4878,1.48914 -2.92431,2.13443 -4.822554,2.13443 -3.745172,0 -6.002544,-2.48189 -6.002544,-6.15507 0,-3.97101 2.35998,-6.30399 5.797328,-6.30399 1.795637,0 3.334754,0.69493 5.02777,2.13443 z"
         style="font-weight:bold;font-size:39.9999px;line-height:1.25;font-family:Futura;-inkscape-font-specification:'Futura Bold';letter-spacing:-1.46804px;baseline-shift:baseline;fill:#0a427d;fill-opacity:1;stroke:none;stroke-width:0.26458333;stroke-dasharray:none"
         id="path9393" /><path
         d="m 127.3602,239.07259 c 0,-7.24709 -6.49074,-13.10433 -14.9287,-13.10433 -8.43797,0 -14.874615,5.85724 -14.874615,13.10433 0,7.19746 6.382565,13.10433 14.874615,13.10433 8.43796,0 14.9287,-5.85723 14.9287,-13.10433 z m -9.35748,0 c 0,3.62355 -2.10949,5.85725 -5.57122,5.85725 -3.46173,0 -5.57122,-2.2337 -5.57122,-5.85725 0,-3.62354 2.10949,-5.90688 5.57122,-5.90688 3.46173,0 5.57122,2.28334 5.57122,5.90688 z"
         style="font-weight:bold;font-size:39.9999px;line-height:1.25;font-family:Futura;-inkscape-font-specification:'Futura Bold';letter-spacing:-1.46804px;baseline-shift:baseline;fill:#0a427d;fill-opacity:1;stroke:none;stroke-width:0.26458333;stroke-dasharray:none"
         id="path9395" /><path
         id="path9544"
         style="font-variation-settings:normal;opacity:1;fill:#0a427d;fill-opacity:1;stroke:none;stroke-width:0.26458333;stroke-linecap:butt;stroke-linejoin:miter;stroke-miterlimit:4;stroke-dasharray:none;stroke-dashoffset:0;stroke-opacity:1;stop-color:#000000;stop-opacity:1"
         d="m 33.89239,226.76232 9.663493,11.07271 -12.000301,13.39867 h 11.851989 l 5.958293,-7.32152 5.958809,7.32152 h 11.85199 L 55.176362,237.83503 64.839855,226.76232 H 53.490677 l -4.124813,4.8705 -4.124296,-4.8705 z" /><circle
         style="font-variation-settings:normal;opacity:1;fill:#0a427d;fill-opacity:1;fill-rule:evenodd;stroke:none;stroke-width:0.26458333;stroke-linecap:round;stroke-linejoin:round;stroke-miterlimit:4;stroke-dasharray:none;stroke-dashoffset:0;stroke-opacity:1;stop-color:#000000;stop-opacity:1"
         id="circle10043"
         cx="72.605309"
         cy="248.08641"
         r="4.0904984" /><path
         style="font-variation-settings:normal;opacity:1;fill:#0a427d;fill-opacity:1;stroke:none;stroke-width:0.26458333;stroke-linecap:butt;stroke-linejoin:miter;stroke-miterlimit:4;stroke-dasharray:none;stroke-dashoffset:0;stroke-opacity:1;stop-color:#000000;stop-opacity:1"
         d="m 9.2594957,72.321324 62.0212223,58.841906 -30.061433,42.55376 56.439574,12.11264 16.094351,-12.98968 20.53426,20.06243 43.32696,8.93157 26.75071,-19.71263 -76.42287,-68.60221 -29.94491,-15.97432 7.0881,14.56254 -71.747597,-64.666793 z"
         id="path10242"
         sodipodi:nodetypes="ccccccccccccc" /><path
         style="font-variation-settings:normal;opacity:1;fill:#ffffff;fill-opacity:1;stroke:none;stroke-width:0.26458333;stroke-linecap:butt;stroke-linejoin:miter;stroke-miterlimit:4;stroke-dasharray:none;stroke-dashoffset:0;stroke-opacity:1;stop-color:#000000;stop-opacity:1"
         d="m 33.337863,47.440537 61.942508,63.722213 -31.007647,41.44057 59.626356,14.05057 10.46905,-18.22244 23.91899,24.87532 46.07802,8.81455 -56.28098,-56.9107 L 166.63607,93.518634 121.99701,77.54431 112.98015,90.012074 88.740361,65.382671 Z"
         id="path10227" /></g></g></svg>
