<?xml version="1.0" encoding="UTF-8" standalone="no"?>
<svg
   fill="none"
   viewBox="0 0 500 500"
   width="500"
   height="500"
   version="1.1"
   id="svg4"
   sodipodi:docname="facebook.svg"
   inkscape:version="1.2-beta (1b65182ce9, 2022-04-05)"
   xmlns:inkscape="http://www.inkscape.org/namespaces/inkscape"
   xmlns:sodipodi="http://sodipodi.sourceforge.net/DTD/sodipodi-0.dtd"
   xmlns="http://www.w3.org/2000/svg"
   xmlns:svg="http://www.w3.org/2000/svg">
  <defs
     id="defs8" />
  <sodipodi:namedview
     id="namedview6"
     pagecolor="#ffffff"
     bordercolor="#000000"
     borderopacity="0.25"
     inkscape:pageshadow="2"
     inkscape:pageopacity="0.0"
     inkscape:pagecheckerboard="0"
     inkscape:deskcolor="#d1d1d1"
     showgrid="false"
     inkscape:zoom="1.152"
     inkscape:cx="247.39583"
     inkscape:cy="250"
     inkscape:current-layer="svg4" />
  <path
     d="m500,250C500,111.93,388.07,0,250,0S0,111.93,0,250c0,117.24,80.72,215.62,189.61,242.64v-166.24h-51.55v-76.4h51.55v-32.92c0-85.09,38.51-124.53,122.05-124.53,15.84,0,43.17,3.11,54.35,6.21v69.25c-5.9-.62-16.15-.93-28.88-.93-40.99,0-56.83,15.53-56.83,55.9v27.02h81.66l-14.03,76.4h-67.63v171.77c123.77-14.95,219.7-120.35,219.7-248.17Z"
     fill="#0866ff"
     id="path2"
     style="fill:#ffffff" />
</svg>
